<svg width="32" height="32" aria-hidden="true">
   <path fill="#14b8a6" d="M27 0H5C3.4 0 2 1.4 2 3v26c0 1.6 1.4 3 3 3h22c1.6 0 3-1.4 3-3V3c0-1.6-1.4-3-3-3zM10 27.2c0 .4-.4.8-.8.8H6.8c-.4 0-.8-.4-.8-.8v-2.4c0-.4.4-.8.8-.8h2.4c.4 0 .8.4.8.8zm0-8c0 .4-.4.8-.8.8H6.8c-.4 0-.8-.4-.8-.8v-2.4c0-.4.4-.8.8-.8h2.4c.4 0 .8.4.8.8zm8 8c0 .4-.4.8-.8.8h-2.4c-.4 0-.8-.4-.8-.8v-2.4c0-.4.4-.8.8-.8h2.4c.4 0 .8.4.8.8zm0-8c0 .4-.4.8-.8.8h-2.4c-.4 0-.8-.4-.8-.8v-2.4c0-.4.4-.8.8-.8h2.4c.4 0 .8.4.8.8zm8 8c0 .4-.4.8-.8.8h-2.4c-.4 0-.8-.4-.8-.8V16.8c0-.4.4-.8.8-.8h2.4c.4 0 .8.4.8.8zm0-16c0 .4-.4.8-.8.8H6.8c-.4 0-.8-.4-.8-.8V4.8c0-.4.4-.8.8-.8h18.4c.4 0 .8.4.8.8z"/>
</svg>